<?xml version="1.0" encoding="utf-8"?>
<!-- Generator: Adobe Illustrator 22.1.0, SVG Export Plug-In . SVG Version: 6.00 Build 0)  -->
<svg version="1.1" id="optimised_icon" xmlns="http://www.w3.org/2000/svg" xmlns:xlink="http://www.w3.org/1999/xlink" x="0px"
	 y="0px" viewBox="0 0 404.1 78.8" style="enable-background:new 0 0 404.1 78.8;" xml:space="preserve">
<style type="text/css">
	.st0{fill:none;stroke:#4474B9;stroke-width:2;stroke-miterlimit:10;}
	.st1{fill:#A4BEDB;}
	.st2{fill:none;stroke:#4474B9;stroke-miterlimit:10;}
</style>
<g>
	<g>
		<g>
			<path class="st0" d="M76.4,1c-8.1,0-15.3,4-19.7,10C52.3,5,45.1,1,37,1C23.6,1,12.7,11.9,12.7,25.3c0,17.7,33,44.8,41.9,51.8
				c1.3,1,3,1,4.3,0c8.8-6.9,41.9-34,41.9-51.8C100.7,11.9,89.8,1,76.4,1z"/>
		</g>
		<path class="st1" d="M70.7,51.9c-4,0-6.6-7-9.3-14.3C59.8,33.4,57.4,27,55.9,27c-1.6,0-3.7,5.2-5.3,9c-2.4,5.8-4.6,11.3-8.1,11.3
			c-3.7,0-6.7-5.7-9.5-11.1c-1.4-2.6-3.4-6.6-4.4-6.8c-2.2,0-5,4.4-7.5,11.7c-1.3,3.7-4,6.2-6.9,6.2c0,0-0.1,0-0.1,0
			c-1.6,0-4.6-0.9-6.1-6.3c-2.3-7.9-5.6-9.9-5.6-9.9l1-1.6c0.2,0.1,4,2.2,6.5,11c0.9,3.1,2.4,4.9,4.3,4.9c0,0,0,0,0,0c2,0,4-2,5-4.9
			c2.9-8.8,6-13,9.4-13c2,0,3.5,2.7,6.2,7.8c2.2,4.3,5.3,10.1,7.7,10.1c2.2,0,4.5-5.9,6.3-10.1c2.2-5.5,4.1-10.2,7.1-10.2
			c2.8,0,4.6,4.5,7.4,11.9c2,5.5,4.9,13.1,7.5,13.1c2.4,0,4.2-5.9,5.7-10.6c1.9-6,3.7-11.7,7.5-11.7c3.5,0,5.5,3.9,7.7,8
			c2.2,4.2,4.4,8.5,7.9,8.5c3.2,0,5.4-7.4,5.9-12.1l2,0.2c-0.2,1.4-1.8,13.7-7.9,13.7c-4.7,0-7.4-5-9.7-9.5c-1.8-3.4-3.7-7-5.9-7
			c-2.3,0-4.1,5.7-5.5,10.4C76.4,46.1,74.6,51.9,70.7,51.9z"/>
		<path class="st0" d="M113.1,31.9c-0.7,6.3-4.1,20.2-9.5,20.2c-4.5,0-6.2-7.3-8.1-15.9c-0.5-2.2-1.3-5.6-2.1-8.3
			c-0.7-2-3.6-2-4.2,0c-0.8,2.8-1.6,6.4-2,8.7c-1.7,8.3-3,14.9-7,14.9c-4.1,0-6.3-5.8-8.7-12c-0.3-0.9-0.8-2-1.2-3
			c-0.8-1.9-3.4-1.8-4.1,0.2c-0.9,2.9-1.9,6.5-2.6,9.1c-2.8,10.6-3.9,14-6.4,14c-4.1,0-6.1-8.9-9.6-29.3c-0.7-4.1-1.5-8.7-2.3-12.3
			c-0.3-1.5-2.5-1.6-2.9-0.1c-1.3,4.5-2.7,10.8-3.7,15.6C37,41.4,35.6,48,34.3,50.4c-0.9,1.7-2,2-2.8,2c-2.7-0.1-4.5-4.3-7.6-12.3
			c-1-2.4-1.9-5-2.9-7c-0.2-0.4-0.4-0.7-0.5-1c-0.4-0.6-1.3-0.7-1.7,0c-1.1,1.6-2.6,4.9-3.8,7.6c-0.8,1.8-1.8,3.9-2.8,6
			c-0.9,1.9-2.4,4.3-4.8,4C3.6,49.2,1.7,40.2,1,34.9"/>
	</g>
	<g>
		<path class="st2" d="M155.1,55.5h-0.8V45.5c-2,5.8-7.6,10.1-14,10.1c-8.1,0-14.6-6.6-14.6-14.9c0-7.9,6.6-14.6,14.6-14.6
			c6.4,0,12,4.2,14,9.9v-9.9h0.8V55.5z M154.3,40.7c0-7.4-6.3-13.8-14-13.8c-7.8,0-13.8,6.3-13.8,13.8c0,7.8,6.1,14.1,13.8,14.1
			C148,54.7,154.3,48.4,154.3,40.7z"/>
		<path class="st2" d="M163.2,26.3h0.8v21.8c0,4.2,4.5,6.6,9.4,6.6c5,0,9.3-2.4,9.3-6.6V26.3h0.8v29.3h-0.8v-4.4
			c-1.5,2.6-5.1,4.4-9.3,4.4c-4.2,0-7.8-1.8-9.4-4.4c-0.4-0.7-0.8-1.9-0.8-3V26.3z"/>
		<path class="st2" d="M211.2,28.2c-1.6-0.9-3.6-1.3-5.7-1.3c-5,0-9.3,2.4-9.3,6.6v21.8h-0.8V26.1h0.8v4.4c1.5-2.6,5.1-4.4,9.3-4.4
			c2.3,0,4.4,0.6,6.1,1.4L211.2,28.2z"/>
		<path class="st2" d="M243.1,55.5h-0.8V45.5c-2,5.8-7.6,10.1-14,10.1c-8.1,0-14.6-6.6-14.6-14.9c0-7.9,6.6-14.6,14.6-14.6
			c6.4,0,12,4.2,14,9.9v-9.9h0.8V55.5z M242.3,40.7c0-7.4-6.3-13.8-14-13.8c-7.8,0-13.8,6.3-13.8,13.8c0,7.8,6.1,14.1,13.8,14.1
			C236,54.7,242.3,48.4,242.3,40.7z"/>
		<path class="st0" d="M274.5,55.5h-0.8V33.7c0-4.2-4.5-6.6-9.4-6.6c-5,0-9.8,2.4-9.8,6.6v21.8h-0.8v-49h0.8v24.1
			c1.5-2.6,5.6-4.4,9.8-4.4s7.8,1.8,9.4,4.4c0.4,0.7,0.8,1.9,0.8,3V55.5z"/>
		<path class="st0" d="M280.3,40.7c0,7.8,6.1,14.1,13.8,14.1c5.8,0,10.9-3.7,13-8.8l0.8,0.2c-2.2,5.5-7.7,9.4-13.8,9.4
			c-8.1,0-14.6-6.6-14.6-14.9c0-7.9,6.6-14.6,14.6-14.6c8,0,14.8,6.6,14.8,14.6H280.3z M308.1,39.9c-0.5-7.1-6.6-13-14-13
			s-13.4,5.8-13.8,13H308.1z"/>
		<path class="st0" d="M342.9,55.5h-0.8V45.5c-2,5.8-7.6,10.1-14,10.1c-8.1,0-14.6-6.6-14.6-14.9c0-7.9,6.6-14.6,14.6-14.6
			c6.4,0,12,4.2,14,9.9v-9.9h0.8V55.5z M342.1,40.7c0-7.4-6.3-13.8-14-13.8c-7.8,0-13.8,6.3-13.8,13.8c0,7.8,6.1,14.1,13.8,14.1
			C335.8,54.7,342.1,48.4,342.1,40.7z"/>
		<path class="st0" d="M353.8,55.5H353v-49h0.8V55.5z"/>
		<path class="st0" d="M367.4,20.9h-5.8v-0.8h5.8V20.9z M367.4,20.1V6.6h0.8v13.5H367.4z M376.8,53.9c-2.9,2.9-9.4,2.1-9.4-3.1V20.9
			h0.8v29.8c0,4.1,5.7,5,8,2.6L376.8,53.9z M368.2,20.1h5.8v0.8h-5.8V20.1z"/>
		<path class="st0" d="M403.1,55.5h-0.8V33.7c0-4.2-4.5-6.6-9.4-6.6c-5,0-9.8,2.4-9.8,6.6v21.8h-0.8v-49h0.8v24.1
			c1.5-2.6,5.6-4.4,9.8-4.4s7.8,1.8,9.4,4.4c0.4,0.7,0.8,1.9,0.8,3V55.5z"/>
	</g>
</g>
</svg>
